<svg t="1703828015005" class="icon" viewBox="0 0 1024 1024" version="1.1" xmlns="http://www.w3.org/2000/svg" p-id="165998" width="128" height="128"><path d="M798.72 168.277333H216.064A87.722667 87.722667 0 0 0 128.341333 256v373.418667a87.722667 87.722667 0 0 0 87.722667 87.722666H798.72a87.722667 87.722667 0 0 0 87.722667-87.722666V255.658667c0-48.128-39.253333-87.381333-87.722667-87.381334z m39.936 438.272c0 36.522667-29.696 66.218667-66.218667 66.218667H244.053333c-36.522667 0-66.218667-29.696-66.218666-66.218667V278.528c0-36.522667 29.696-66.218667 66.218666-66.218667h528.384c36.522667 0 66.218667 29.696 66.218667 66.218667v328.021333zM123.904 866.304c0-18.773333 15.36-34.474667 34.474667-34.474667h687.104c18.773333 0 34.474667 15.36 34.474666 34.474667 0 18.773333-15.36 34.474667-34.474666 34.474667H158.378667c-19.114667 0-34.474667-15.36-34.474667-34.474667z" fill="#333333" p-id="165999"></path><path d="M753.664 257.365333H262.485333c-24.576 0-44.373333 19.797333-44.373333 44.373334v281.6c0 24.576 19.797333 44.373333 44.373333 44.373333h491.52c24.576 0 44.373333-19.797333 44.373334-44.373333V301.738667c0-24.576-20.138667-44.373333-44.714667-44.373334z m-63.488 260.778667h-257.365333v30.037333h-72.362667v-30.037333H324.266667v-33.792h36.522666v-30.037333h72.362667v30.037333h257.365333v33.792z m0-131.754667h-52.906667v30.037334h-72.362666v-30.037334H324.266667v-33.792h240.64v-30.037333h72.362666v30.037333h52.906667v33.792z" fill="#333333" p-id="166000"></path></svg>