<svg t="1704718496654" class="icon" viewBox="0 0 1024 1024" version="1.1" xmlns="http://www.w3.org/2000/svg" p-id="16800" width="128" height="128"><path d="M128 213.333333c0-35.349333 27.861333-64 62.229333-64h223.189334c6.4 0 12.437333 3.050667 16.362666 8.256l29.312 38.784a42.666667 42.666667 0 0 0 34.048 16.96h298.56C837.546667 213.333333 874.666667 251.52 874.666667 298.666667v426.666666c0 47.146667-37.141333 85.333333-82.965334 85.333334H210.986667C165.12 810.666667 128 772.48 128 725.333333V213.333333z" fill="#AFE1FF" p-id="16801"></path><path d="M192 277.333333h618.666667a64 64 0 0 1 64 64v405.333334a64 64 0 0 1-64 64H192a64 64 0 0 1-64-64V341.333333a64 64 0 0 1 64-64z" fill="#7CCBFB" p-id="16802"></path></svg>