<svg t="1704266169278" class="icon" viewBox="0 0 1092 1024" version="1.1" xmlns="http://www.w3.org/2000/svg" p-id="20602" width="128" height="128"><path d="M977.032527 0H612.829863a2.525867 2.525867 0 0 0-2.321067 1.6384 1702.980255 1702.980255 0 0 0-68.949333 244.667732 1661.951989 1661.951989 0 0 0-29.4912 247.807998c0 0.682667 0.2048 1.365333 0.682667 1.911467a2.4576 2.4576 0 0 0 1.774933 0.682666h109.7728c11.537067 0 22.7328 5.051733 30.515199 13.858134 7.714133 8.738133 11.4688 20.48 10.308267 32.221866-8.123733 85.333333-7.918933 171.349332 0.6144 256.682665 0 0.682667 0.4096 1.365333 0.955733 1.774933a2.4576 2.4576 0 0 0 1.979734 0.477867 500.121597 500.121597 0 0 0 230.741331-110.796799 28.672 28.672 0 0 1 40.482133 3.822933 29.627733 29.627733 0 0 1-3.413333 41.301333 561.49333 561.49333 0 0 1-260.983465 124.040533 2.4576 2.4576 0 0 0-1.911466 2.798933c7.9872 53.725866 19.319467 106.905599 33.860266 159.197866a2.4576 2.4576 0 0 0 2.389333 1.911466h265.079465c64.853333 0 117.350399-53.589333 117.350399-119.603199V117.418666c0-31.1296-12.151467-61.0304-33.723733-83.012266A114.141866 114.141866 0 0 0 977.032527 0z m-139.127466 348.842664c0 16.110933-12.970667 29.354666-28.740266 29.354667a29.0816 29.0816 0 0 1-28.740267-29.354667V253.678932c0-16.110933 12.970667-29.354666 28.672-29.354667 15.837867 0 28.808533 13.243733 28.808533 29.354667V348.842664z" fill="#E6E9ED" p-id="20603"></path><path d="M936.482127 736.051195a561.834663 561.834663 0 0 1-263.304531 124.518399c8.055467 55.022933 19.797333 109.841066 34.815999 163.430399H115.029333a114.005333 114.005333 0 0 1-81.3056-34.338133A118.374399 118.374399 0 0 1 0 906.717861V117.555199C0 52.565333 51.6096 0 115.370666 0h495.75253c-29.354666 80.213333-52.565333 162.474666-69.632 246.306132A1662.907722 1662.907722 0 0 0 511.999997 496.77653h112.366932c11.537067 0 22.7328 4.983467 30.5152 13.789867 7.714133 8.738133 11.4688 20.48 10.308267 32.221866a1326.967458 1326.967458 0 0 0 0.887466 259.481598 500.189863 500.189863 0 0 0 233.403732-111.274666 28.672 28.672 0 0 1 40.482133 3.754667 29.627733 29.627733 0 0 1-3.413333 41.301333z" fill="#1CA0F7" p-id="20604"></path><path d="M936.482127 736.051195a561.834663 561.834663 0 0 1-360.721064 133.597866c-184.319999 0-313.617065-93.457066-360.789331-133.597866a29.696 29.696 0 0 1-3.6864-41.301333 28.672 28.672 0 0 1 40.482133-3.754667c42.325333 36.317866 158.378666 120.081066 323.993598 120.081066 8.874667 0 20.0704-0.341333 33.041066-1.160533a497.663997 497.663997 0 0 0 57.207467-7.645867 500.189863 500.189863 0 0 0 233.403731-111.274666 28.672 28.672 0 0 1 40.482133 3.754667 29.627733 29.627733 0 0 1-3.413333 41.301333zM311.159465 378.197331a28.4672 28.4672 0 0 1-20.2752-8.6016 29.559466 29.559466 0 0 1-8.465067-20.753067V253.747198a29.354666 29.354666 0 0 1 14.336-25.3952 28.2624 28.2624 0 0 1 28.808533 0 29.354666 29.354666 0 0 1 14.336 25.3952V348.842664a29.559466 29.559466 0 0 1-8.3968 20.753067 28.4672 28.4672 0 0 1-20.343466 8.533333zM837.905061 253.678932V348.842664c0 16.110933-12.970667 29.354666-28.740266 29.354667a29.0816 29.0816 0 0 1-28.740267-29.354667V253.678932c0-16.110933 12.970667-29.354666 28.672-29.354667 15.837867 0 28.808533 13.243733 28.808533 29.354667z" fill="#37474F" p-id="20605"></path></svg>