<svg t="1703723600565" class="icon" viewBox="0 0 1024 1024" version="1.1" xmlns="http://www.w3.org/2000/svg" p-id="5993" width="128" height="128"><path d="M877.138358 693.545307a683.050619 683.050619 0 0 1-61.368329 114.353706c-39.867017 60.664417-95.988001 136.430946-165.675291 136.942882-61.880265 0.511936-77.878265-40.378953-161.83577-39.675041s-101.491314 40.442945-163.435571 39.803025c-69.559305-0.63992-122.80065-68.855393-162.731658-129.455818C50.553681 645.871266 38.779153 446.728159 107.76253 340.757405a246.817148 246.817148 0 0 1 198.375203-119.28109c73.782777 0 120.176978 40.570929 181.225347 40.570929 59.192601 0 95.284089-40.698913 180.649418-40.698913a241.12186 241.12186 0 0 1 181.609299 95.988002 207.782027 207.782027 0 0 0 27.580553 376.336958z m-273.885765-539.964505a207.078115 207.078115 0 0 0 46.074241-153.580802 223.972003 223.972003 0 0 0-144.55793 77.814273 192.423947 192.423947 0 0 0-47.354081 149.677291 188.264467 188.264467 0 0 0 145.83777-73.910762z" p-id="5994" fill="#ffffff"></path></svg>