<?xml version="1.0" standalone="no"?><!DOCTYPE svg PUBLIC "-//W3C//DTD SVG 1.1//EN" "http://www.w3.org/Graphics/SVG/1.1/DTD/svg11.dtd"><svg t="1703825364673" class="icon" viewBox="0 0 1024 1024" version="1.1" xmlns="http://www.w3.org/2000/svg" p-id="2590" xmlns:xlink="http://www.w3.org/1999/xlink" width="128" height="128"><path d="M208.979684 1023.998406h606.039873c115.461045 0 208.979266-93.518222 208.979267-208.979267V208.979266C1023.998824 93.518222 930.480602 0 815.019557 0H208.979684C93.51864 0 0.000418 93.518222 0.000418 208.979266v606.039873c0 115.461045 93.518222 208.979266 208.979266 208.979267z" fill="#E58DC9" p-id="2591"></path><path d="M438.856878 419.630367V1023.998406h376.162679c115.461045 0 208.979266-93.518222 208.979267-208.979267V648.149195L438.856878 419.630367z" fill="#F2C200" p-id="2592"></path><path d="M1023.998824 815.019139V208.979266C1023.998824 93.518222 930.480602 0 815.019557 0H208.979684C93.51864 0 0.000418 93.518222 0.000418 208.979266v16.718342l1023.998406 591.202345V815.019139z" fill="#5FE06D" p-id="2593"></path><path d="M271.673464 0v240.221667L30.093432 100.832496A207.913472 207.913472 0 0 0 0.000418 208.979266v212.845383l271.673046 156.83894V1023.998406h355.264753V783.776739l326.112146 188.185829A208.456818 208.456818 0 0 0 1023.998824 815.019139V674.585072L626.938217 445.334817V0H271.673464z" fill="#F5F5F7" p-id="2594"></path><path d="M303.020354 679.182616h292.570973V0H303.020354v679.182616z" fill="#1E86FB" p-id="2595"></path><path d="M449.305841 323.917863c-144.300183 0-261.224083 116.9239-261.224083 261.224083s116.9239 261.224083 261.224083 261.224083 261.224083-116.9239 261.224083-261.224083-116.9239-261.224083-261.224083-261.224083z" fill="#FCFCFF" p-id="2596"></path><path d="M449.305841 365.713716c-121.207975 0-219.42823 98.220255-219.42823 219.42823s98.220255 219.42823 219.42823 219.42823 219.42823-98.220255 219.42823-219.42823-98.220255-219.42823-219.42823-219.42823z" fill="#1E86FB" p-id="2597"></path><path d="M394.866742 717.321332L449.305841 657.657752l54.439099 59.66358c14.942018 16.300383 41.586874 1.358365 35.526475-19.85303l-69.903565-241.475543c-5.851419-20.06201-34.2726-20.06201-40.124019 0l-69.903564 241.475543c-6.060399 21.211396 20.584458 36.153413 35.526475 19.85303z" fill="#F6F6F6" p-id="2598"></path><path d="M1024.019721 225.802097c-97.906786-33.123214-171.154019-119.431651-185.573588-224.548221-7.627743-0.835917-15.464466-1.253876-23.405678-1.253876h-144.822632c16.195893 198.321324 162.690359 359.862297 353.801898 398.627951V225.802097z" fill="#C3C4CE" p-id="2599"></path><path d="M1024.019721 398.627951C832.908182 359.862297 686.413717 198.321324 670.217823 0h31.45138c15.882424 181.080534 148.584258 328.515407 322.350518 366.549633zM806.681284 0z m217.338437 258.716332c-115.670024-34.795048-202.709888-135.627544-217.338437-258.716332h8.359171c7.941212 0 15.777935 0.417959 23.405678 1.253876 14.419569 105.116571 87.666802 191.425008 185.573588 224.548221z" fill="#FFFFFF" p-id="2600"></path></svg>