<svg t="1703825470320" class="icon" viewBox="0 0 1024 1024" version="1.1" xmlns="http://www.w3.org/2000/svg" p-id="2913" width="128" height="128"><path d="M208.979592 1024h606.040816c115.461224 0 208.979592-93.518367 208.979592-208.979592V208.979592C1024 93.518367 930.481633 0 815.020408 0H208.979592C93.518367 0 0 93.518367 0 208.979592v606.040816c0 115.461224 93.518367 208.979592 208.979592 208.979592z" fill="#F4F2EF" p-id="2914"></path><path d="M0 512h1024v-10.44898H0v10.44898zM0 752.326531h1024v-10.44898H0v10.44898z" fill="#CCCCCC" p-id="2915"></path><path d="M0 250.77551h1024v-41.795918C1024 93.518367 930.481633 0 815.020408 0H208.979592C93.518367 0 0 93.518367 0 208.979592v41.795918z" fill="#FFD332" p-id="2916"></path><path d="M15.25551 292.571429c0.626939 0 1.358367 0.10449 1.985306 0.208979s1.358367 0.313469 1.985306 0.626939c0.522449 0.20898 1.149388 0.522449 1.671837 0.940408 0.626939 0.417959 1.149388 0.835918 1.567347 1.253878 0.522449 0.522449 0.940408 1.044898 1.358367 1.567347l0.940409 1.880816c0.20898 0.626939 0.417959 1.253878 0.522449 1.880816 0.10449 0.731429 0.20898 1.358367 0.208979 2.089796s-0.10449 1.358367-0.208979 2.089796c-0.10449 0.626939-0.313469 1.253878-0.522449 1.880816l-0.940409 1.880817c-0.417959 0.522449-0.835918 1.044898-1.358367 1.567347-0.417959 0.417959-0.940408 0.835918-1.567347 1.253877-0.522449 0.417959-1.149388 0.731429-1.671837 0.940408-0.626939 0.313469-1.358367 0.522449-1.985306 0.626939-0.626939 0.10449-1.358367 0.20898-1.985306 0.20898H10.24c-0.626939 0-1.358367-0.10449-1.985306-0.20898a7.282939 7.282939 0 0 1-1.985306-0.626939 6.76049 6.76049 0 0 1-1.671837-0.940408 10.271347 10.271347 0 0 1-1.567347-1.253877 8.244245 8.244245 0 0 1-1.253877-1.567347c-0.417959-0.626939-0.731429-1.253878-1.044898-1.880817-0.20898-0.626939-0.417959-1.253878-0.522449-1.880816-0.10449-0.731429-0.20898-1.358367-0.20898-2.089796s0.10449-1.358367 0.20898-2.089796c0.10449-0.626939 0.313469-1.253878 0.522449-1.880816 0.313469-0.626939 0.626939-1.253878 1.044898-1.880816 0.313469-0.522449 0.731429-1.044898 1.253877-1.567347 0.417959-0.417959 0.940408-0.835918 1.567347-1.253878 0.522449-0.417959 1.149388-0.731429 1.671837-0.940408 0.626939-0.313469 1.358367-0.522449 1.985306-0.626939 0.626939-0.10449 1.358367-0.20898 1.985306-0.208979z m50.155102 0c0.731429 0 1.358367 0.10449 1.985306 0.208979 0.731429 0.10449 1.358367 0.313469 1.985306 0.626939a7.314286 7.314286 0 0 1 1.776327 0.940408l1.567347 1.253878 1.253878 1.567347 0.940408 1.880816c0.20898 0.626939 0.417959 1.253878 0.522449 1.880816 0.20898 0.731429 0.20898 1.358367 0.208979 2.089796s0 1.358367-0.208979 2.089796c-0.10449 0.626939-0.313469 1.253878-0.522449 1.880816l-0.940408 1.880817-1.253878 1.567347-1.567347 1.253877a7.314286 7.314286 0 0 1-1.776327 0.940408c-0.626939 0.313469-1.253878 0.522449-1.985306 0.626939-0.626939 0.10449-1.253878 0.20898-1.985306 0.20898H55.379592c-0.626939 0-1.358367-0.10449-1.985306-0.20898a6.645551 6.645551 0 0 1-1.880817-0.626939 5.809633 5.809633 0 0 1-1.776326-0.940408 10.271347 10.271347 0 0 1-1.567347-1.253877 8.244245 8.244245 0 0 1-1.253878-1.567347 7.909878 7.909878 0 0 1-0.940408-1.880817 6.645551 6.645551 0 0 1-0.626939-1.880816c-0.10449-0.731429-0.20898-1.358367-0.208979-2.089796s0.10449-1.358367 0.208979-2.089796c0.10449-0.626939 0.313469-1.253878 0.626939-1.880816 0.20898-0.626939 0.522449-1.253878 0.940408-1.880816 0.313469-0.522449 0.731429-1.044898 1.253878-1.567347 0.417959-0.417959 0.940408-0.835918 1.567347-1.253878 0.522449-0.417959 1.149388-0.731429 1.776326-0.940408 0.626939-0.313469 1.253878-0.522449 1.880817-0.626939 0.626939-0.10449 1.358367-0.20898 1.985306-0.208979z m50.155102 0c0.731429 0 1.358367 0.10449 2.089796 0.208979 0.626939 0.10449 1.253878 0.313469 1.880817 0.626939 0.626939 0.20898 1.253878 0.522449 1.776326 0.940408l1.567347 1.253878 1.253878 1.567347 0.940408 1.880816 0.626938 1.880816c0.10449 0.731429 0.10449 1.358367 0.10449 2.089796s0 1.358367-0.10449 2.089796l-0.626938 1.880816-0.940408 1.880817-1.253878 1.567347-1.567347 1.253877c-0.522449 0.417959-1.149388 0.731429-1.776326 0.940408-0.626939 0.313469-1.253878 0.522449-1.880817 0.626939-0.731429 0.10449-1.358367 0.20898-2.089796 0.20898h-10.03102c-0.626939 0-1.253878-0.10449-1.985306-0.20898a6.645551 6.645551 0 0 1-1.880817-0.626939 5.809633 5.809633 0 0 1-1.776326-0.940408l-1.567347-1.253877c-0.417959-0.522449-0.940408-1.044898-1.253878-1.567347a7.909878 7.909878 0 0 1-0.940408-1.880817c-0.313469-0.626939-0.417959-1.253878-0.626939-1.880816-0.10449-0.731429-0.20898-1.358367-0.208979-2.089796s0.10449-1.358367 0.208979-2.089796c0.20898-0.626939 0.313469-1.253878 0.626939-1.880816 0.20898-0.626939 0.522449-1.253878 0.940408-1.880816 0.313469-0.522449 0.835918-1.044898 1.253878-1.567347l1.567347-1.253878c0.522449-0.417959 1.149388-0.731429 1.776326-0.940408 0.626939-0.313469 1.253878-0.522449 1.880817-0.626939 0.731429-0.10449 1.358367-0.20898 1.985306-0.208979z m50.259592 0c0.626939 0 1.253878 0.10449 1.985306 0.208979 0.626939 0.10449 1.253878 0.313469 1.880817 0.626939 0.626939 0.20898 1.253878 0.522449 1.776326 0.940408l1.567347 1.253878c0.417959 0.522449 0.940408 1.044898 1.253878 1.567347 0.417959 0.626939 0.731429 1.253878 0.940408 1.880816 0.313469 0.626939 0.417959 1.253878 0.626939 1.880816 0.10449 0.731429 0.20898 1.358367 0.208979 2.089796s-0.10449 1.358367-0.208979 2.089796c-0.20898 0.626939-0.313469 1.253878-0.626939 1.880816-0.20898 0.626939-0.522449 1.253878-0.940408 1.880817-0.313469 0.522449-0.835918 1.044898-1.253878 1.567347l-1.567347 1.253877c-0.522449 0.417959-1.149388 0.731429-1.776326 0.940408-0.626939 0.313469-1.253878 0.522449-1.880817 0.626939-0.731429 0.10449-1.358367 0.20898-1.985306 0.20898h-10.03102c-0.731429 0-1.358367-0.10449-2.089796-0.20898a6.645551 6.645551 0 0 1-1.880817-0.626939 5.809633 5.809633 0 0 1-1.776326-0.940408l-1.567347-1.253877-1.253878-1.567347-0.940408-1.880817-0.626938-1.880816c-0.10449-0.731429-0.10449-1.358367-0.10449-2.089796s0-1.358367 0.10449-2.089796l0.626938-1.880816 0.940408-1.880816 1.253878-1.567347 1.567347-1.253878c0.522449-0.417959 1.149388-0.731429 1.776326-0.940408 0.626939-0.313469 1.253878-0.522449 1.880817-0.626939 0.731429-0.10449 1.358367-0.20898 2.089796-0.208979z m50.155102 0c0.626939 0 1.358367 0.10449 1.985306 0.208979s1.253878 0.313469 1.880817 0.626939c0.626939 0.20898 1.253878 0.522449 1.776326 0.940408 0.626939 0.417959 1.149388 0.835918 1.567347 1.253878 0.522449 0.522449 0.940408 1.044898 1.253878 1.567347 0.417959 0.626939 0.731429 1.253878 0.940408 1.880816 0.313469 0.626939 0.522449 1.253878 0.626939 1.880816 0.10449 0.731429 0.20898 1.358367 0.208979 2.089796s-0.10449 1.358367-0.208979 2.089796c-0.10449 0.626939-0.313469 1.253878-0.626939 1.880816-0.20898 0.626939-0.522449 1.253878-0.940408 1.880817-0.313469 0.522449-0.731429 1.044898-1.253878 1.567347-0.417959 0.417959-0.940408 0.835918-1.567347 1.253877-0.522449 0.417959-1.149388 0.731429-1.776326 0.940408-0.626939 0.313469-1.253878 0.522449-1.880817 0.626939-0.626939 0.10449-1.358367 0.20898-1.985306 0.20898h-10.03102c-0.731429 0-1.358367-0.10449-1.985306-0.20898a6.300735 6.300735 0 0 1-1.985306-0.626939 7.314286 7.314286 0 0 1-1.776327-0.940408l-1.567347-1.253877-1.253878-1.567347-0.940408-1.880817c-0.20898-0.626939-0.417959-1.253878-0.522449-1.880816-0.20898-0.731429-0.20898-1.358367-0.208979-2.089796s0-1.358367 0.208979-2.089796c0.10449-0.626939 0.313469-1.253878 0.522449-1.880816l0.940408-1.880816 1.253878-1.567347 1.567347-1.253878a7.314286 7.314286 0 0 1 1.776327-0.940408c0.626939-0.313469 1.253878-0.522449 1.985306-0.626939 0.626939-0.10449 1.253878-0.20898 1.985306-0.208979z m50.155102 0c0.626939 0 1.358367 0.10449 1.985306 0.208979s1.358367 0.313469 1.985306 0.626939c0.522449 0.20898 1.149388 0.522449 1.671837 0.940408 0.626939 0.417959 1.149388 0.835918 1.567347 1.253878 0.522449 0.522449 0.940408 1.044898 1.358367 1.567347l0.940409 1.880816c0.20898 0.626939 0.417959 1.253878 0.522449 1.880816 0.10449 0.731429 0.20898 1.358367 0.208979 2.089796s-0.10449 1.358367-0.208979 2.089796c-0.10449 0.626939-0.313469 1.253878-0.522449 1.880816l-0.940409 1.880817c-0.417959 0.522449-0.835918 1.044898-1.358367 1.567347-0.417959 0.417959-0.940408 0.835918-1.567347 1.253877-0.522449 0.417959-1.149388 0.731429-1.671837 0.940408-0.626939 0.313469-1.358367 0.522449-1.985306 0.626939-0.626939 0.10449-1.358367 0.20898-1.985306 0.20898h-10.03102c-0.626939 0-1.358367-0.10449-1.985306-0.20898a7.282939 7.282939 0 0 1-1.985306-0.626939 6.76049 6.76049 0 0 1-1.671837-0.940408 10.271347 10.271347 0 0 1-1.567347-1.253877c-0.522449-0.522449-0.940408-1.044898-1.358367-1.567347l-0.940409-1.880817c-0.20898-0.626939-0.417959-1.253878-0.522449-1.880816-0.10449-0.731429-0.20898-1.358367-0.208979-2.089796s0.10449-1.358367 0.208979-2.089796c0.10449-0.626939 0.313469-1.253878 0.522449-1.880816l0.940409-1.880816c0.417959-0.522449 0.835918-1.044898 1.358367-1.567347 0.417959-0.417959 0.940408-0.835918 1.567347-1.253878 0.522449-0.417959 1.149388-0.731429 1.671837-0.940408 0.626939-0.313469 1.358367-0.522449 1.985306-0.626939 0.626939-0.10449 1.358367-0.20898 1.985306-0.208979z m50.155102 0c0.731429 0 1.358367 0.10449 1.985306 0.208979 0.731429 0.10449 1.358367 0.313469 1.985306 0.626939a7.314286 7.314286 0 0 1 1.776327 0.940408l1.567347 1.253878 1.253878 1.567347 0.940408 1.880816c0.20898 0.626939 0.417959 1.253878 0.522449 1.880816 0.20898 0.731429 0.20898 1.358367 0.208979 2.089796s0 1.358367-0.208979 2.089796c-0.10449 0.626939-0.313469 1.253878-0.522449 1.880816l-0.940408 1.880817-1.253878 1.567347-1.567347 1.253877a7.314286 7.314286 0 0 1-1.776327 0.940408c-0.626939 0.313469-1.253878 0.522449-1.985306 0.626939-0.626939 0.10449-1.253878 0.20898-1.985306 0.20898h-10.03102c-0.626939 0-1.358367-0.10449-1.985306-0.20898a6.645551 6.645551 0 0 1-1.880817-0.626939 5.809633 5.809633 0 0 1-1.776326-0.940408 10.271347 10.271347 0 0 1-1.567347-1.253877 8.244245 8.244245 0 0 1-1.253878-1.567347 7.909878 7.909878 0 0 1-0.940408-1.880817 6.645551 6.645551 0 0 1-0.626939-1.880816c-0.10449-0.731429-0.20898-1.358367-0.208979-2.089796s0.10449-1.358367 0.208979-2.089796c0.10449-0.626939 0.313469-1.253878 0.626939-1.880816 0.20898-0.626939 0.522449-1.253878 0.940408-1.880816 0.313469-0.522449 0.731429-1.044898 1.253878-1.567347 0.417959-0.417959 0.940408-0.835918 1.567347-1.253878 0.522449-0.417959 1.149388-0.731429 1.776326-0.940408 0.626939-0.313469 1.253878-0.522449 1.880817-0.626939 0.626939-0.10449 1.358367-0.20898 1.985306-0.208979z m50.155102 0c0.731429 0 1.358367 0.10449 2.089796 0.208979 0.626939 0.10449 1.253878 0.313469 1.880817 0.626939 0.626939 0.20898 1.253878 0.522449 1.776326 0.940408l1.567347 1.253878 1.253878 1.567347 0.940408 1.880816 0.626938 1.880816c0.10449 0.731429 0.10449 1.358367 0.10449 2.089796s0 1.358367-0.10449 2.089796l-0.626938 1.880816-0.940408 1.880817-1.253878 1.567347-1.567347 1.253877c-0.522449 0.417959-1.149388 0.731429-1.776326 0.940408-0.626939 0.313469-1.253878 0.522449-1.880817 0.626939-0.731429 0.10449-1.358367 0.20898-2.089796 0.20898h-10.03102c-0.626939 0-1.253878-0.10449-1.985306-0.20898a6.645551 6.645551 0 0 1-1.880817-0.626939 5.809633 5.809633 0 0 1-1.776326-0.940408l-1.567347-1.253877c-0.417959-0.522449-0.940408-1.044898-1.253878-1.567347a7.909878 7.909878 0 0 1-0.940408-1.880817c-0.313469-0.626939-0.417959-1.253878-0.626939-1.880816-0.10449-0.731429-0.20898-1.358367-0.208979-2.089796s0.10449-1.358367 0.208979-2.089796c0.20898-0.626939 0.313469-1.253878 0.626939-1.880816 0.20898-0.626939 0.522449-1.253878 0.940408-1.880816 0.313469-0.522449 0.835918-1.044898 1.253878-1.567347l1.567347-1.253878c0.522449-0.417959 1.149388-0.731429 1.776326-0.940408 0.626939-0.313469 1.253878-0.522449 1.880817-0.626939 0.731429-0.10449 1.358367-0.20898 1.985306-0.208979z m50.259592 0c0.626939 0 1.253878 0.10449 1.985306 0.208979 0.626939 0.10449 1.253878 0.313469 1.880817 0.626939 0.626939 0.20898 1.253878 0.522449 1.776326 0.940408l1.567347 1.253878c0.417959 0.522449 0.940408 1.044898 1.253878 1.567347 0.417959 0.626939 0.731429 1.253878 0.940408 1.880816 0.313469 0.626939 0.417959 1.253878 0.626939 1.880816 0.10449 0.731429 0.20898 1.358367 0.208979 2.089796s-0.10449 1.358367-0.208979 2.089796c-0.20898 0.626939-0.313469 1.253878-0.626939 1.880816-0.20898 0.626939-0.522449 1.253878-0.940408 1.880817-0.313469 0.522449-0.835918 1.044898-1.253878 1.567347l-1.567347 1.253877c-0.522449 0.417959-1.149388 0.731429-1.776326 0.940408-0.626939 0.313469-1.253878 0.522449-1.880817 0.626939-0.731429 0.10449-1.358367 0.20898-1.985306 0.20898h-10.03102c-0.731429 0-1.358367-0.10449-2.089796-0.20898a6.645551 6.645551 0 0 1-1.880817-0.626939 5.809633 5.809633 0 0 1-1.776326-0.940408l-1.567347-1.253877-1.253878-1.567347-0.940408-1.880817-0.626938-1.880816c-0.10449-0.731429-0.10449-1.358367-0.10449-2.089796s0-1.358367 0.10449-2.089796l0.626938-1.880816 0.940408-1.880816 1.253878-1.567347 1.567347-1.253878c0.522449-0.417959 1.149388-0.731429 1.776326-0.940408 0.626939-0.313469 1.253878-0.522449 1.880817-0.626939 0.731429-0.10449 1.358367-0.20898 2.089796-0.208979z m50.155102 0c0.626939 0 1.358367 0.10449 1.985306 0.208979s1.253878 0.313469 1.880817 0.626939c0.626939 0.20898 1.253878 0.522449 1.776326 0.940408 0.626939 0.417959 1.149388 0.835918 1.567347 1.253878 0.522449 0.522449 0.940408 1.044898 1.253878 1.567347 0.417959 0.626939 0.731429 1.253878 0.940408 1.880816 0.313469 0.626939 0.522449 1.253878 0.626939 1.880816 0.10449 0.731429 0.20898 1.358367 0.208979 2.089796s-0.10449 1.358367-0.208979 2.089796c-0.10449 0.626939-0.313469 1.253878-0.626939 1.880816-0.20898 0.626939-0.522449 1.253878-0.940408 1.880817-0.313469 0.522449-0.731429 1.044898-1.253878 1.567347-0.417959 0.417959-0.940408 0.835918-1.567347 1.253877-0.522449 0.417959-1.149388 0.731429-1.776326 0.940408-0.626939 0.313469-1.253878 0.522449-1.880817 0.626939-0.626939 0.10449-1.358367 0.20898-1.985306 0.20898h-10.03102c-0.731429 0-1.358367-0.10449-1.985306-0.20898a6.300735 6.300735 0 0 1-1.985306-0.626939 7.314286 7.314286 0 0 1-1.776327-0.940408l-1.567347-1.253877-1.253878-1.567347-0.940408-1.880817c-0.20898-0.626939-0.417959-1.253878-0.522449-1.880816-0.20898-0.731429-0.20898-1.358367-0.208979-2.089796s0-1.358367 0.208979-2.089796c0.10449-0.626939 0.313469-1.253878 0.522449-1.880816l0.940408-1.880816 1.253878-1.567347 1.567347-1.253878a7.314286 7.314286 0 0 1 1.776327-0.940408c0.626939-0.313469 1.253878-0.522449 1.985306-0.626939 0.626939-0.10449 1.253878-0.20898 1.985306-0.208979z m50.155102 0c0.626939 0 1.358367 0.10449 1.985306 0.208979s1.358367 0.313469 1.985306 0.626939c0.522449 0.20898 1.149388 0.522449 1.671837 0.940408 0.626939 0.417959 1.149388 0.835918 1.567347 1.253878 0.522449 0.522449 0.940408 1.044898 1.358367 1.567347l0.940409 1.880816c0.20898 0.626939 0.417959 1.253878 0.522449 1.880816 0.10449 0.731429 0.20898 1.358367 0.208979 2.089796s-0.10449 1.358367-0.208979 2.089796c-0.10449 0.626939-0.313469 1.253878-0.522449 1.880816l-0.940409 1.880817c-0.417959 0.522449-0.835918 1.044898-1.358367 1.567347-0.417959 0.417959-0.940408 0.835918-1.567347 1.253877-0.522449 0.417959-1.149388 0.731429-1.671837 0.940408-0.626939 0.313469-1.358367 0.522449-1.985306 0.626939-0.626939 0.10449-1.358367 0.20898-1.985306 0.20898h-10.03102c-0.626939 0-1.358367-0.10449-1.985306-0.20898a7.282939 7.282939 0 0 1-1.985306-0.626939 6.76049 6.76049 0 0 1-1.671837-0.940408 10.271347 10.271347 0 0 1-1.567347-1.253877c-0.522449-0.522449-0.940408-1.044898-1.358367-1.567347l-0.940409-1.880817c-0.20898-0.626939-0.417959-1.253878-0.522449-1.880816-0.10449-0.731429-0.20898-1.358367-0.208979-2.089796s0.10449-1.358367 0.208979-2.089796c0.10449-0.626939 0.313469-1.253878 0.522449-1.880816l0.940409-1.880816c0.417959-0.522449 0.835918-1.044898 1.358367-1.567347 0.417959-0.417959 0.940408-0.835918 1.567347-1.253878 0.522449-0.417959 1.149388-0.731429 1.671837-0.940408 0.626939-0.313469 1.358367-0.522449 1.985306-0.626939 0.626939-0.10449 1.358367-0.20898 1.985306-0.208979z m50.155102 0c0.731429 0 1.358367 0.10449 1.985306 0.208979 0.731429 0.10449 1.358367 0.313469 1.985306 0.626939a7.314286 7.314286 0 0 1 1.776327 0.940408l1.567347 1.253878 1.253878 1.567347 0.940408 1.880816c0.20898 0.626939 0.417959 1.253878 0.522449 1.880816 0.20898 0.731429 0.20898 1.358367 0.208979 2.089796s0 1.358367-0.208979 2.089796c-0.10449 0.626939-0.313469 1.253878-0.522449 1.880816l-0.940408 1.880817-1.253878 1.567347-1.567347 1.253877a7.314286 7.314286 0 0 1-1.776327 0.940408c-0.626939 0.313469-1.253878 0.522449-1.985306 0.626939-0.626939 0.10449-1.253878 0.20898-1.985306 0.20898h-10.03102c-0.626939 0-1.358367-0.10449-1.985306-0.20898a6.645551 6.645551 0 0 1-1.880817-0.626939 5.809633 5.809633 0 0 1-1.776326-0.940408 10.271347 10.271347 0 0 1-1.567347-1.253877 8.244245 8.244245 0 0 1-1.253878-1.567347 7.909878 7.909878 0 0 1-0.940408-1.880817 6.645551 6.645551 0 0 1-0.626939-1.880816c-0.10449-0.731429-0.20898-1.358367-0.208979-2.089796s0.10449-1.358367 0.208979-2.089796c0.10449-0.626939 0.313469-1.253878 0.626939-1.880816 0.20898-0.626939 0.522449-1.253878 0.940408-1.880816 0.313469-0.522449 0.731429-1.044898 1.253878-1.567347 0.417959-0.417959 0.940408-0.835918 1.567347-1.253878 0.522449-0.417959 1.149388-0.731429 1.776326-0.940408 0.626939-0.313469 1.253878-0.522449 1.880817-0.626939 0.626939-0.10449 1.358367-0.20898 1.985306-0.208979z m50.155102 0c0.731429 0 1.358367 0.10449 2.089796 0.208979 0.626939 0.10449 1.253878 0.313469 1.880817 0.626939 0.626939 0.20898 1.253878 0.522449 1.776326 0.940408l1.567347 1.253878 1.253878 1.567347 0.940408 1.880816 0.626938 1.880816c0.10449 0.731429 0.10449 1.358367 0.10449 2.089796s0 1.358367-0.10449 2.089796l-0.626938 1.880816-0.940408 1.880817-1.253878 1.567347-1.567347 1.253877c-0.522449 0.417959-1.149388 0.731429-1.776326 0.940408-0.626939 0.313469-1.253878 0.522449-1.880817 0.626939-0.731429 0.10449-1.358367 0.20898-2.089796 0.20898h-10.03102c-0.626939 0-1.253878-0.10449-1.985306-0.20898a6.645551 6.645551 0 0 1-1.880817-0.626939 5.809633 5.809633 0 0 1-1.776326-0.940408l-1.567347-1.253877c-0.417959-0.522449-0.940408-1.044898-1.253878-1.567347a7.909878 7.909878 0 0 1-0.940408-1.880817c-0.313469-0.626939-0.417959-1.253878-0.626939-1.880816-0.10449-0.731429-0.20898-1.358367-0.208979-2.089796s0.10449-1.358367 0.208979-2.089796c0.20898-0.626939 0.313469-1.253878 0.626939-1.880816 0.20898-0.626939 0.522449-1.253878 0.940408-1.880816 0.313469-0.522449 0.835918-1.044898 1.253878-1.567347l1.567347-1.253878c0.522449-0.417959 1.149388-0.731429 1.776326-0.940408 0.626939-0.313469 1.253878-0.522449 1.880817-0.626939 0.731429-0.10449 1.358367-0.20898 1.985306-0.208979z m50.259592 0c0.626939 0 1.253878 0.10449 1.985306 0.208979 0.626939 0.10449 1.253878 0.313469 1.880817 0.626939 0.626939 0.20898 1.253878 0.522449 1.776326 0.940408l1.567347 1.253878c0.417959 0.522449 0.940408 1.044898 1.253878 1.567347 0.417959 0.626939 0.731429 1.253878 0.940408 1.880816 0.313469 0.626939 0.417959 1.253878 0.626939 1.880816 0.10449 0.731429 0.20898 1.358367 0.208979 2.089796s-0.10449 1.358367-0.208979 2.089796c-0.20898 0.626939-0.313469 1.253878-0.626939 1.880816-0.20898 0.626939-0.522449 1.253878-0.940408 1.880817-0.313469 0.522449-0.835918 1.044898-1.253878 1.567347l-1.567347 1.253877c-0.522449 0.417959-1.149388 0.731429-1.776326 0.940408-0.626939 0.313469-1.253878 0.522449-1.880817 0.626939-0.731429 0.10449-1.358367 0.20898-1.985306 0.20898h-10.03102c-0.731429 0-1.358367-0.10449-2.089796-0.20898a6.645551 6.645551 0 0 1-1.880817-0.626939 5.809633 5.809633 0 0 1-1.776326-0.940408l-1.567347-1.253877-1.253878-1.567347-0.940408-1.880817-0.626938-1.880816c-0.10449-0.731429-0.10449-1.358367-0.10449-2.089796s0-1.358367 0.10449-2.089796l0.626938-1.880816 0.940408-1.880816 1.253878-1.567347 1.567347-1.253878c0.522449-0.417959 1.149388-0.731429 1.776326-0.940408 0.626939-0.313469 1.253878-0.522449 1.880817-0.626939 0.731429-0.10449 1.358367-0.20898 2.089796-0.208979z m50.155102 0c0.626939 0 1.358367 0.10449 1.985306 0.208979s1.253878 0.313469 1.880817 0.626939c0.626939 0.20898 1.253878 0.522449 1.776326 0.940408 0.626939 0.417959 1.149388 0.835918 1.567347 1.253878 0.522449 0.522449 0.940408 1.044898 1.253878 1.567347 0.417959 0.626939 0.731429 1.253878 0.940408 1.880816 0.313469 0.626939 0.522449 1.253878 0.626939 1.880816 0.10449 0.731429 0.20898 1.358367 0.208979 2.089796s-0.10449 1.358367-0.208979 2.089796c-0.10449 0.626939-0.313469 1.253878-0.626939 1.880816-0.20898 0.626939-0.522449 1.253878-0.940408 1.880817-0.313469 0.522449-0.731429 1.044898-1.253878 1.567347-0.417959 0.417959-0.940408 0.835918-1.567347 1.253877-0.522449 0.417959-1.149388 0.731429-1.776326 0.940408-0.626939 0.313469-1.253878 0.522449-1.880817 0.626939-0.626939 0.10449-1.358367 0.20898-1.985306 0.20898h-10.03102c-0.731429 0-1.358367-0.10449-1.985306-0.20898a6.300735 6.300735 0 0 1-1.985306-0.626939 7.314286 7.314286 0 0 1-1.776327-0.940408l-1.567347-1.253877-1.253878-1.567347-0.940408-1.880817c-0.20898-0.626939-0.417959-1.253878-0.522449-1.880816-0.20898-0.731429-0.20898-1.358367-0.208979-2.089796s0-1.358367 0.208979-2.089796c0.10449-0.626939 0.313469-1.253878 0.522449-1.880816l0.940408-1.880816 1.253878-1.567347 1.567347-1.253878a7.314286 7.314286 0 0 1 1.776327-0.940408c0.626939-0.313469 1.253878-0.522449 1.985306-0.626939 0.626939-0.10449 1.253878-0.20898 1.985306-0.208979z m50.155102 0c0.626939 0 1.358367 0.10449 1.985306 0.208979s1.358367 0.313469 1.985306 0.626939c0.522449 0.20898 1.149388 0.522449 1.671837 0.940408 0.626939 0.417959 1.149388 0.835918 1.567347 1.253878 0.522449 0.522449 0.940408 1.044898 1.358367 1.567347l0.940409 1.880816c0.20898 0.626939 0.417959 1.253878 0.522449 1.880816 0.10449 0.731429 0.20898 1.358367 0.208979 2.089796s-0.10449 1.358367-0.208979 2.089796c-0.10449 0.626939-0.313469 1.253878-0.522449 1.880816l-0.940409 1.880817c-0.417959 0.522449-0.835918 1.044898-1.358367 1.567347-0.417959 0.417959-0.940408 0.835918-1.567347 1.253877-0.522449 0.417959-1.149388 0.731429-1.671837 0.940408-0.626939 0.313469-1.358367 0.522449-1.985306 0.626939-0.626939 0.10449-1.358367 0.20898-1.985306 0.20898h-10.03102c-0.626939 0-1.358367-0.10449-1.985306-0.20898a7.282939 7.282939 0 0 1-1.985306-0.626939 6.76049 6.76049 0 0 1-1.671837-0.940408 10.271347 10.271347 0 0 1-1.567347-1.253877c-0.522449-0.522449-0.940408-1.044898-1.358367-1.567347l-0.940409-1.880817c-0.20898-0.626939-0.417959-1.253878-0.522449-1.880816-0.10449-0.731429-0.20898-1.358367-0.208979-2.089796s0.10449-1.358367 0.208979-2.089796c0.10449-0.626939 0.313469-1.253878 0.522449-1.880816l0.940409-1.880816c0.417959-0.522449 0.835918-1.044898 1.358367-1.567347 0.417959-0.417959 0.940408-0.835918 1.567347-1.253878 0.522449-0.417959 1.149388-0.731429 1.671837-0.940408 0.626939-0.313469 1.358367-0.522449 1.985306-0.626939 0.626939-0.10449 1.358367-0.20898 1.985306-0.208979z m50.155102 0c0.731429 0 1.358367 0.10449 1.985306 0.208979 0.731429 0.10449 1.358367 0.313469 1.985306 0.626939a7.314286 7.314286 0 0 1 1.776327 0.940408l1.567347 1.253878 1.253878 1.567347 0.940408 1.880816c0.20898 0.626939 0.417959 1.253878 0.522449 1.880816 0.20898 0.731429 0.20898 1.358367 0.208979 2.089796s0 1.358367-0.208979 2.089796c-0.10449 0.626939-0.313469 1.253878-0.522449 1.880816l-0.940408 1.880817-1.253878 1.567347-1.567347 1.253877a7.314286 7.314286 0 0 1-1.776327 0.940408c-0.626939 0.313469-1.253878 0.522449-1.985306 0.626939-0.626939 0.10449-1.253878 0.20898-1.985306 0.20898h-10.03102c-0.626939 0-1.358367-0.10449-1.985306-0.20898a6.645551 6.645551 0 0 1-1.880817-0.626939 5.809633 5.809633 0 0 1-1.776326-0.940408 10.271347 10.271347 0 0 1-1.567347-1.253877 8.244245 8.244245 0 0 1-1.253878-1.567347 7.909878 7.909878 0 0 1-0.940408-1.880817 6.645551 6.645551 0 0 1-0.626939-1.880816c-0.10449-0.731429-0.20898-1.358367-0.208979-2.089796s0.10449-1.358367 0.208979-2.089796c0.10449-0.626939 0.313469-1.253878 0.626939-1.880816 0.20898-0.626939 0.522449-1.253878 0.940408-1.880816 0.313469-0.522449 0.731429-1.044898 1.253878-1.567347 0.417959-0.417959 0.940408-0.835918 1.567347-1.253878 0.522449-0.417959 1.149388-0.731429 1.776326-0.940408 0.626939-0.313469 1.253878-0.522449 1.880817-0.626939 0.626939-0.10449 1.358367-0.20898 1.985306-0.208979z m50.155102 0c0.731429 0 1.358367 0.10449 2.089796 0.208979 0.626939 0.10449 1.253878 0.313469 1.880817 0.626939 0.626939 0.20898 1.253878 0.522449 1.776326 0.940408l1.567347 1.253878 1.253878 1.567347 0.940408 1.880816 0.626938 1.880816c0.10449 0.731429 0.10449 1.358367 0.10449 2.089796s0 1.358367-0.10449 2.089796l-0.626938 1.880816-0.940408 1.880817-1.253878 1.567347-1.567347 1.253877c-0.522449 0.417959-1.149388 0.731429-1.776326 0.940408-0.626939 0.313469-1.253878 0.522449-1.880817 0.626939-0.731429 0.10449-1.358367 0.20898-2.089796 0.20898h-10.03102c-0.626939 0-1.253878-0.10449-1.985306-0.20898a6.645551 6.645551 0 0 1-1.880817-0.626939 5.809633 5.809633 0 0 1-1.776326-0.940408l-1.567347-1.253877c-0.417959-0.522449-0.940408-1.044898-1.253878-1.567347a7.909878 7.909878 0 0 1-0.940408-1.880817c-0.313469-0.626939-0.417959-1.253878-0.626939-1.880816-0.10449-0.731429-0.20898-1.358367-0.208979-2.089796s0.10449-1.358367 0.208979-2.089796c0.20898-0.626939 0.313469-1.253878 0.626939-1.880816 0.20898-0.626939 0.522449-1.253878 0.940408-1.880816 0.313469-0.522449 0.835918-1.044898 1.253878-1.567347l1.567347-1.253878c0.522449-0.417959 1.149388-0.731429 1.776326-0.940408 0.626939-0.313469 1.253878-0.522449 1.880817-0.626939 0.731429-0.10449 1.358367-0.20898 1.985306-0.208979z m50.259592 0c0.626939 0 1.253878 0.10449 1.985306 0.208979 0.626939 0.10449 1.253878 0.313469 1.880817 0.626939 0.626939 0.20898 1.253878 0.522449 1.776326 0.940408l1.567347 1.253878c0.417959 0.522449 0.940408 1.044898 1.253878 1.567347 0.417959 0.626939 0.731429 1.253878 0.940408 1.880816 0.313469 0.626939 0.417959 1.253878 0.626939 1.880816 0.10449 0.731429 0.20898 1.358367 0.208979 2.089796s-0.10449 1.358367-0.208979 2.089796c-0.20898 0.626939-0.313469 1.253878-0.626939 1.880816-0.20898 0.626939-0.522449 1.253878-0.940408 1.880817-0.313469 0.522449-0.835918 1.044898-1.253878 1.567347l-1.567347 1.253877c-0.522449 0.417959-1.149388 0.731429-1.776326 0.940408-0.626939 0.313469-1.253878 0.522449-1.880817 0.626939-0.731429 0.10449-1.358367 0.20898-1.985306 0.20898h-10.03102c-0.731429 0-1.358367-0.10449-2.089796-0.20898a6.645551 6.645551 0 0 1-1.880817-0.626939 5.809633 5.809633 0 0 1-1.776326-0.940408l-1.567347-1.253877-1.253878-1.567347-0.940408-1.880817-0.626938-1.880816c-0.10449-0.731429-0.10449-1.358367-0.10449-2.089796s0-1.358367 0.10449-2.089796l0.626938-1.880816 0.940408-1.880816 1.253878-1.567347 1.567347-1.253878c0.522449-0.417959 1.149388-0.731429 1.776326-0.940408 0.626939-0.313469 1.253878-0.522449 1.880817-0.626939 0.731429-0.10449 1.358367-0.20898 2.089796-0.208979z m50.155102 0c0.626939 0 1.358367 0.10449 1.985306 0.208979s1.253878 0.313469 1.880817 0.626939c0.626939 0.20898 1.253878 0.522449 1.776326 0.940408 0.626939 0.417959 1.149388 0.835918 1.567347 1.253878 0.522449 0.522449 0.940408 1.044898 1.253878 1.567347 0.417959 0.626939 0.731429 1.253878 0.940408 1.880816 0.313469 0.626939 0.522449 1.253878 0.626939 1.880816 0.10449 0.731429 0.20898 1.358367 0.208979 2.089796s-0.10449 1.358367-0.208979 2.089796c-0.10449 0.626939-0.313469 1.253878-0.626939 1.880816-0.20898 0.626939-0.522449 1.253878-0.940408 1.880817-0.313469 0.522449-0.731429 1.044898-1.253878 1.567347-0.417959 0.417959-0.940408 0.835918-1.567347 1.253877-0.522449 0.417959-1.149388 0.731429-1.776326 0.940408-0.626939 0.313469-1.253878 0.522449-1.880817 0.626939-0.626939 0.10449-1.358367 0.20898-1.985306 0.20898h-10.03102c-0.731429 0-1.358367-0.10449-1.985306-0.20898a6.300735 6.300735 0 0 1-1.985306-0.626939 7.314286 7.314286 0 0 1-1.776327-0.940408l-1.567347-1.253877-1.253878-1.567347-0.940408-1.880817c-0.20898-0.626939-0.417959-1.253878-0.522449-1.880816-0.20898-0.731429-0.20898-1.358367-0.208979-2.089796s0-1.358367 0.208979-2.089796c0.10449-0.626939 0.313469-1.253878 0.522449-1.880816l0.940408-1.880816 1.253878-1.567347 1.567347-1.253878a7.314286 7.314286 0 0 1 1.776327-0.940408c0.626939-0.313469 1.253878-0.522449 1.985306-0.626939 0.626939-0.10449 1.253878-0.20898 1.985306-0.208979z m45.139592 0c0.626939 0 1.358367 0.10449 1.985306 0.208979s1.358367 0.313469 1.985306 0.626939c0.522449 0.20898 1.149388 0.522449 1.671837 0.940408 0.626939 0.417959 1.149388 0.835918 1.567347 1.253878 0.522449 0.522449 0.940408 1.044898 1.253877 1.567347 0.417959 0.626939 0.731429 1.253878 1.044898 1.880816 0.20898 0.626939 0.417959 1.253878 0.522449 1.880816 0.10449 0.731429 0.20898 1.358367 0.20898 2.089796s-0.10449 1.358367-0.20898 2.089796c-0.10449 0.626939-0.313469 1.253878-0.522449 1.880816-0.313469 0.626939-0.626939 1.253878-1.044898 1.880817-0.313469 0.522449-0.731429 1.044898-1.253877 1.567347-0.417959 0.417959-0.940408 0.835918-1.567347 1.253877-0.522449 0.417959-1.149388 0.731429-1.671837 0.940408-0.626939 0.313469-1.358367 0.522449-1.985306 0.626939-0.626939 0.10449-1.358367 0.20898-1.985306 0.20898h-5.01551c-0.626939 0-1.358367-0.10449-1.985306-0.20898a7.282939 7.282939 0 0 1-1.985306-0.626939 6.76049 6.76049 0 0 1-1.671837-0.940408 10.271347 10.271347 0 0 1-1.567347-1.253877c-0.522449-0.522449-0.940408-1.044898-1.358367-1.567347l-0.940409-1.880817c-0.20898-0.626939-0.417959-1.253878-0.522449-1.880816-0.10449-0.731429-0.20898-1.358367-0.208979-2.089796s0.10449-1.358367 0.208979-2.089796c0.10449-0.626939 0.313469-1.253878 0.522449-1.880816l0.940409-1.880816c0.417959-0.522449 0.835918-1.044898 1.358367-1.567347 0.417959-0.417959 0.940408-0.835918 1.567347-1.253878 0.522449-0.417959 1.149388-0.731429 1.671837-0.940408 0.626939-0.313469 1.358367-0.522449 1.985306-0.626939 0.626939-0.10449 1.358367-0.20898 1.985306-0.208979z" fill="#CCCCCC" p-id="2917"></path></svg>