<svg t="1703825508208" class="icon" viewBox="0 0 1024 1024" version="1.1" xmlns="http://www.w3.org/2000/svg" p-id="3076" width="128" height="128"><path d="M208.979592 1024h606.040816c115.461224 0 208.979592-93.518367 208.979592-208.979592V208.979592C1024 93.518367 930.481633 0 815.020408 0H208.979592C93.518367 0 0 93.518367 0 208.979592v606.040816c0 115.461224 93.518367 208.979592 208.979592 208.979592z" fill="#FFFFFF" p-id="3077"></path><path d="M512 83.591837C275.435102 83.591837 83.591837 275.435102 83.591837 512s191.843265 428.408163 428.408163 428.408163 428.408163-191.843265 428.408163-428.408163S748.564898 83.591837 512 83.591837z" fill="#23A7F2" p-id="3078"></path><path d="M506.77551 167.183673v-62.693877h10.44898v62.693877z m-36.048979 2.403266l-6.478368-62.275919 10.34449-1.149387 6.582857 62.380408z m72.097959-1.044898l6.582857-62.380408 10.34449 1.149387-6.478368 62.275919z m-101.773061 5.955918l-11.911837-61.54449 10.24-1.985306 11.911837 61.54449z m131.657142-1.985306l11.911837-61.54449 10.24 1.985306-11.911837 61.54449z m-166.556734 11.284898l-18.285715-59.977143 10.031021-3.030204 18.285714 59.977143z m201.665306-3.030204l18.285714-59.977143 10.031021 3.030204-18.285715 59.977143z m-229.877551 13.479184l-23.405714-58.096327 9.613061-3.970612 23.510204 58.200816z m263.941224-1.671837l24.555102-57.782857 9.613062 4.179592-24.555102 57.678367zM345.547755 210.02449l-29.466122-55.379592 9.195102-4.91102 29.466122 55.379591z m323.709388-4.911021l29.466122-55.379591 9.195102 4.91102-29.466122 55.379592z m31.242449 18.076735l35.004081-51.931428 8.672654 5.851428-35.004082 51.931429z m-385.671837 5.851429l-35.004082-51.931429 8.672654-5.851428 35.004081 51.931428z m410.122449 11.702857l39.392653-48.692245 8.150204 6.582857-39.392653 48.692245z m-434.050612 6.582857l-39.392653-48.692245 8.150204-6.582857 39.392653 48.692245z m-26.435919 24.555102l-44.303673-44.303673 7.418776-7.418776 44.303673 44.303673z m487.653878-7.418776l44.303673-44.303673 7.418776 7.418776-44.303673 44.303673z m24.555102 26.435919l48.692245-39.392653 6.582857 8.150204-48.692245 39.392653z m-535.928163 8.150204l-48.692245-39.392653 6.582857-8.150204 48.692245 39.392653z m-17.554286 24.450612l-51.931428-35.004081 5.851428-8.672654 51.931429 35.004082z m571.768163-8.672653l51.931429-35.004082 5.851428 8.672654-51.931428 35.004081z m19.017143 30.72l55.379592-29.466122 4.91102 9.195102-55.379591 29.466122z m-608.862041 9.195102l-55.379591-29.466122 4.91102-9.195102 55.379592 29.466122z m-12.538775 27.376327l-57.782857-24.555102 4.179592-9.613062 57.678367 24.555102z m637.178775-4.179592l58.096327-23.405714 3.970612 9.613061-58.200816 23.510204zM180.767347 416.182857l-59.977143-18.285714 3.030204-10.031021 59.977143 18.285715z m659.435102-10.03102l59.977143-18.285715 3.030204 10.031021-59.977143 18.285714z m9.299592 34.899592l61.54449-11.911837 1.985306 10.24-61.54449 11.911837z m-676.989388 10.24l-61.54449-11.911837 1.985306-10.24 61.54449 11.911837z m681.900408 19.435102l62.275919-6.478368 1.149387 10.34449-62.380408 6.582857z m-685.87102 10.448979l-62.380408-6.582857 1.149387-10.34449 62.275919 6.478368zM167.183673 517.22449h-62.693877v-10.44898h62.693877z m689.632654-10.44898h62.693877v10.44898h-62.693877z m-1.358368 36.04898l62.380408 6.582857-1.149387 10.34449-62.275919-6.478368z m-685.87102 10.448979l-62.275919 6.478368-1.149387-10.34449 62.380408-6.582857z m681.900408 19.435102l61.54449 11.911837-1.985306 10.24-61.54449-11.911837z m-676.989388 10.24l-61.54449 11.911837-1.985306-10.24 61.54449-11.911837z m9.299592 34.899592l-59.977143 18.285715-3.030204-10.031021 59.977143-18.285714z m659.435102-10.03102l59.977143 18.285714-3.030204 10.031021-59.977143-18.285715z m-648.986122 38.243265l-58.096327 23.405714-3.970612-9.613061 58.200816-23.510204z m637.178775-4.179592l57.782857 24.555102-4.179592 9.613062-57.678367-24.555102z m-12.538775 27.376327l55.379591 29.466122-4.91102 9.195102-55.379592-29.466122z m-608.862041 9.195102l-55.379592 29.466122-4.91102-9.195102 55.379591-29.466122z m19.017143 30.72l-51.931429 35.004082-5.851428-8.672654 51.931428-35.004081z m571.768163-8.672653l51.931428 35.004081-5.851428 8.672654-51.931429-35.004082z m-17.554286 24.450612l48.692245 39.392653-6.582857 8.150204-48.692245-39.392653z m-535.928163 8.150204l-48.692245 39.392653-6.582857-8.045714 48.692245-39.497143z m24.555102 26.435919l-44.303673 44.303673-7.418776-7.418776 44.303673-44.303673z m487.653878-7.418776l44.303673 44.303673-7.418776 7.418776-44.303673-44.303673z m-26.435919 24.555102l39.392653 48.692245-8.045714 6.582857-39.497143-48.692245z m-434.050612 6.582857l-39.392653 48.692245-8.150204-6.582857 39.392653-48.692245z m24.450612 17.554286l-35.004081 51.931428-8.672654-5.851428 35.004082-51.931429z m385.671837-5.851429l35.004082 51.931429-8.672654 5.851428-35.004081-51.931428z m-354.429388 23.928164l-29.466122 55.379591-9.195102-4.91102 29.466122-55.379592z m323.709388-4.911021l29.466122 55.379592-9.195102 4.91102-29.466122-55.379591z m-296.333061 17.449796l-24.555102 57.782857-9.613062-4.179592 24.555102-57.678367z m263.941224-1.671837l23.405714 58.096327-9.613061 3.970612-23.510204-58.200816z m-229.877551 13.479184l-18.285714 59.977143-10.031021-3.030204 18.285715-59.977143z m201.665306-3.030204l18.285715 59.977143-10.031021 3.030204-18.285714-59.977143z m-166.556734 11.284898l-11.911837 61.54449-10.24-1.985306 11.911837-61.54449z m131.657142-1.985306l11.911837 61.54449-10.24 1.985306-11.911837-61.54449z m-101.773061 5.955918l-6.582857 62.380408-10.34449-1.149387 6.478368-62.275919z m72.097959-1.044898l6.478368 62.275919-10.34449 1.149387-6.582857-62.380408zM517.22449 856.816327v62.693877h-10.44898v-62.693877z" fill="#FFFFFF" p-id="3079"></path><path d="M480.005224 485.229714l63.989552 63.989551L781.677714 247.536327 480.026122 485.229714z" fill="#FF6159" p-id="3080"></path><path d="M480.005224 485.229714l63.989552 63.989551L242.311837 786.902204l237.682939-301.662041z" fill="#FFFFFF" p-id="3081"></path></svg>