<svg t="1703825587348" class="icon" viewBox="0 0 1024 1024" version="1.1" xmlns="http://www.w3.org/2000/svg" p-id="3236" width="128" height="128"><path d="M208.979592 1024h606.040816c115.461224 0 208.979592-93.518367 208.979592-208.979592V208.979592C1024 93.518367 930.481633 0 815.020408 0H208.979592C93.518367 0 0 93.518367 0 208.979592v606.040816c0 115.461224 93.518367 208.979592 208.979592 208.979592z" fill="#BDC6C8" p-id="3237"></path><path d="M512 83.591837C275.435102 83.591837 83.591837 275.435102 83.591837 512s191.843265 428.408163 428.408163 428.408163 428.408163-191.843265 428.408163-428.408163S748.564898 83.591837 512 83.591837z" fill="#676A68" p-id="3238"></path><path d="M517.01551 281.39102c4.702041 0.10449 9.404082 0.313469 14.106123 0.731429l8.150204-29.884082 1.880816 30.92898c6.060408 0.731429 12.016327 1.671837 17.867755 2.925714l11.702857-28.630204-1.880816 30.92898c4.597551 1.149388 9.090612 2.403265 13.479184 3.866122l14.733061-27.271837-5.22449 30.511021c5.746939 2.089796 11.284898 4.388571 16.822857 7.000816l17.867755-25.28653-8.881632 29.675102c4.179592 2.089796 8.254694 4.388571 12.329796 6.791836l20.48-23.196734-11.911837 28.525714c5.01551 3.343673 9.926531 6.896327 14.733061 10.553469l23.092245-20.584489-15.25551 26.958367c3.552653 3.030204 7.000816 6.164898 10.448979 9.404082l25.182041-18.076735-18.076735 25.182041c3.239184 3.448163 6.373878 6.896327 9.404082 10.448979l26.958367-15.25551-20.584489 23.092245c3.657143 4.806531 7.209796 9.717551 10.553469 14.733061l28.525714-11.911837-23.196734 20.48c2.403265 4.075102 4.702041 8.150204 6.896326 12.329796l29.570612-8.881632-25.18204 17.867755c2.507755 5.537959 4.806531 11.075918 6.896326 16.822857l30.511021-5.22449-27.167347 14.628572c1.358367 4.493061 2.716735 8.986122 3.866122 13.583673l30.82449-1.880816-28.630204 11.702857c1.253878 5.851429 2.194286 11.807347 3.030204 17.867755l30.82449 1.880816-29.779592 8.150204c0.313469 4.702041 0.626939 9.404082 0.731428 14.106123L773.22449 512l-30.511021 5.01551c-0.10449 4.702041-0.417959 9.404082-0.731428 14.106123l29.779592 8.150204-30.82449 1.880816c-0.731429 6.060408-1.776327 12.016327-3.030204 17.867755l28.630204 11.702857-30.82449-1.880816c-1.149388 4.597551-2.507755 9.090612-3.866122 13.583673l27.167347 14.628572-30.511021-5.22449c-2.089796 5.746939-4.388571 11.284898-6.896326 16.822857l25.18204 17.867755-29.570612-8.881632c-2.194286 4.179592-4.493061 8.254694-6.896326 12.329796l23.196734 20.48-28.525714-11.911837c-3.343673 5.01551-6.896327 9.926531-10.553469 14.733061l20.584489 23.092245-26.958367-15.25551c-3.030204 3.552653-6.164898 7.000816-9.404082 10.448979l18.076735 25.182041-25.182041-18.076735c-3.448163 3.239184-6.896327 6.373878-10.448979 9.404082l15.25551 26.958367-23.092245-20.584489c-4.806531 3.657143-9.717551 7.209796-14.733061 10.553469l11.911837 28.525714-20.48-23.196734c-4.075102 2.403265-8.150204 4.702041-12.329796 6.896326l8.881632 29.570612-17.867755-25.18204c-5.537959 2.507755-11.075918 4.806531-16.822857 6.896326l5.22449 30.511021-14.628572-27.167347c-4.493061 1.358367-8.986122 2.716735-13.583673 3.866122l1.880816 30.82449-11.702857-28.630204c-5.851429 1.253878-11.807347 2.298776-17.867755 3.030204l-1.880816 30.82449-8.150204-29.779592c-4.702041 0.313469-9.404082 0.626939-14.106123 0.731428L512 773.22449l-5.01551-30.511021c-4.702041-0.10449-9.404082-0.417959-14.106123-0.731428l-8.150204 29.779592-1.880816-30.82449c-6.060408-0.835918-12.016327-1.776327-17.867755-3.030204l-11.702857 28.630204 1.880816-30.82449c-4.597551-1.149388-9.090612-2.507755-13.583673-3.866122l-14.628572 27.167347 5.22449-30.511021c-5.746939-2.089796-11.284898-4.388571-16.822857-6.896326l-17.867755 25.18204 8.881632-29.570612c-4.179592-2.194286-8.254694-4.493061-12.329796-6.896326l-20.48 23.196734 11.911837-28.525714c-5.01551-3.343673-9.926531-6.896327-14.733061-10.553469l-23.092245 20.584489 15.25551-26.958367c-3.552653-3.030204-7.000816-6.164898-10.448979-9.404082l-25.182041 18.076735 18.076735-25.182041c-3.239184-3.448163-6.373878-6.896327-9.404082-10.448979l-26.958367 15.25551 20.584489-23.092245c-3.657143-4.806531-7.209796-9.717551-10.553469-14.733061l-28.525714 11.911837 23.196734-20.48c-2.403265-4.075102-4.702041-8.150204-6.791836-12.329796l-29.675102 8.881632 25.28653-17.867755c-2.612245-5.537959-4.91102-11.075918-7.000816-16.822857l-30.511021 5.22449 27.271837-14.733061c-1.462857-4.388571-2.716735-8.881633-3.866122-13.479184l-30.92898 1.880816 28.630204-11.702857c-1.253878-5.851429-2.194286-11.807347-2.925714-17.867755l-30.92898-1.880816 29.884082-8.150204c-0.417959-4.702041-0.626939-9.404082-0.731429-14.106123L250.77551 512l30.61551-5.01551c0.10449-4.702041 0.313469-9.404082 0.731429-14.106123l-29.884082-8.150204 30.92898-1.880816c0.731429-6.060408 1.671837-12.016327 2.925714-17.867755l-28.630204-11.702857 30.92898 1.880816c1.149388-4.597551 2.403265-9.090612 3.866122-13.479184l-27.271837-14.733061 30.511021 5.22449c2.089796-5.746939 4.388571-11.284898 7.000816-16.822857l-25.28653-17.867755 29.675102 8.881632c2.089796-4.179592 4.388571-8.254694 6.791836-12.329796l-23.196734-20.48 28.525714 11.911837c3.343673-5.01551 6.896327-9.926531 10.553469-14.733061l-20.584489-23.092245 26.958367 15.25551c3.030204-3.552653 6.164898-7.000816 9.404082-10.448979l-18.076735-25.182041 25.182041 18.076735c3.448163-3.239184 6.896327-6.373878 10.448979-9.404082l-15.25551-26.958367 23.092245 20.584489c4.806531-3.657143 9.717551-7.209796 14.733061-10.553469l-11.911837-28.525714 20.48 23.196734c4.075102-2.403265 8.150204-4.702041 12.329796-6.791836l-8.881632-29.675102 17.867755 25.28653c5.537959-2.612245 11.075918-4.91102 16.822857-7.000816l-5.22449-30.511021 14.733061 27.271837c4.388571-1.462857 8.881633-2.716735 13.479184-3.866122l-1.880816-30.92898 11.702857 28.630204c5.851429-1.253878 11.807347-2.194286 17.867755-2.925714l1.880816-30.92898 8.150204 29.884082c4.702041-0.417959 9.404082-0.626939 14.106123-0.731429L512 250.77551zM512 715.546122c112.43102 0 203.546122-91.115102 203.546122-203.546122S624.43102 308.453878 512 308.453878 308.453878 399.56898 308.453878 512 399.56898 715.546122 512 715.546122z" fill="#BDC6C8" p-id="3239"></path><path d="M519.836735 156.839184c7.209796 0.10449 14.419592 0.522449 21.524898 1.044898l12.643265-45.975511 2.821224 47.647347c9.299592 1.149388 18.494694 2.716735 27.480817 4.493062l18.181224-43.990204-2.925714 47.542857c7.000816 1.776327 13.897143 3.761633 20.68898 5.955918l22.674285-41.900408-7.836734 46.915918c8.672653 3.239184 17.240816 6.791837 25.6 10.657959l27.689796-38.765714-13.583674 45.662041c6.373878 3.343673 12.643265 6.791837 18.808163 10.44898l31.555919-35.735511-18.285715 43.990204c7.732245 5.12 15.25551 10.553469 22.569796 16.195919l35.735511-31.660408-23.614694 41.482449c5.537959 4.702041 10.866939 9.508571 16.091428 14.419591l38.765714-27.689795-27.689795 38.765714c4.91102 5.22449 9.717551 10.553469 14.419591 16.091428l41.482449-23.614694-31.660408 35.735511c5.642449 7.314286 11.075918 14.837551 16.195919 22.569796l43.990204-18.285715-35.735511 31.555919c3.657143 6.164898 7.105306 12.434286 10.44898 18.808163l45.662041-13.583674-38.765714 27.689796c3.866122 8.359184 7.418776 16.927347 10.657959 25.6l46.915918-7.836734-41.900408 22.674285c2.194286 6.791837 4.179592 13.688163 5.955918 20.68898l47.542857-2.925714-43.990204 18.181224c1.776327 8.986122 3.343673 18.181224 4.493062 27.480817l47.647347 2.821224-45.975511 12.643265c0.522449 7.105306 0.940408 14.315102 1.044898 21.524898l47.124898 7.836735-47.124898 7.836735c-0.10449 7.209796-0.522449 14.419592-1.044898 21.524898l45.975511 12.643265-47.647347 2.821224c-1.149388 9.299592-2.716735 18.494694-4.493062 27.480817l43.990204 18.181224-47.542857-2.925714c-1.776327 7.000816-3.761633 13.897143-5.955918 20.68898l41.900408 22.674285-46.915918-7.836734c-3.239184 8.672653-6.791837 17.240816-10.657959 25.6l38.765714 27.689796-45.662041-13.583674c-3.343673 6.373878-6.791837 12.643265-10.44898 18.808163l35.735511 31.555919-43.990204-18.285715c-5.12 7.732245-10.553469 15.25551-16.195919 22.569796l31.660408 35.735511-41.482449-23.614694c-4.702041 5.537959-9.508571 10.866939-14.419591 16.091428l27.689795 38.765714-38.765714-27.689795c-5.22449 4.91102-10.553469 9.717551-16.091428 14.419591l23.614694 41.482449-35.735511-31.660408c-7.314286 5.642449-14.837551 11.075918-22.569796 16.195919l18.285715 43.990204-31.555919-35.735511c-6.164898 3.657143-12.434286 7.105306-18.808163 10.44898l13.583674 45.662041-27.689796-38.765714c-8.359184 3.866122-16.927347 7.418776-25.6 10.657959l7.836734 46.915918-22.674285-41.900408c-6.791837 2.194286-13.688163 4.179592-20.68898 5.955918l2.925714 47.542857-18.181224-43.990204c-8.986122 1.776327-18.181224 3.343673-27.480817 4.493062l-2.821224 47.647347-12.643265-45.975511c-7.105306 0.522449-14.315102 0.940408-21.524898 1.044898L512 914.285714l-7.836735-47.124898c-7.209796-0.10449-14.419592-0.522449-21.524898-1.044898l-12.643265 45.975511-2.821224-47.647347c-9.299592-1.149388-18.494694-2.716735-27.480817-4.493062l-18.181224 43.990204 2.925714-47.542857c-7.000816-1.776327-13.897143-3.761633-20.68898-5.955918l-22.674285 41.900408 7.836734-46.915918c-8.672653-3.239184-17.240816-6.791837-25.6-10.657959l-27.689796 38.765714 13.583674-45.662041c-6.373878-3.343673-12.643265-6.791837-18.808163-10.44898l-31.555919 35.735511 18.285715-43.990204c-7.732245-5.12-15.25551-10.553469-22.569796-16.195919l-35.735511 31.660408 23.614694-41.482449c-5.537959-4.702041-10.866939-9.508571-16.091428-14.419591l-38.765714 27.689795 27.689795-38.765714c-4.91102-5.22449-9.717551-10.553469-14.419591-16.091428l-41.482449 23.614694 31.660408-35.735511c-5.642449-7.314286-11.075918-14.837551-16.195919-22.569796l-43.990204 18.285715 35.735511-31.555919c-3.657143-6.164898-7.105306-12.434286-10.44898-18.808163l-45.662041 13.583674 38.765714-27.689796c-3.866122-8.359184-7.418776-16.927347-10.657959-25.6l-46.915918 7.836734 41.900408-22.674285c-2.194286-6.791837-4.179592-13.688163-5.955918-20.68898l-47.542857 2.925714 43.990204-18.181224c-1.776327-8.986122-3.343673-18.181224-4.493062-27.480817l-47.647347-2.821224 45.975511-12.643265c-0.522449-7.105306-0.940408-14.315102-1.044898-21.524898L109.714286 512l47.124898-7.836735c0.10449-7.209796 0.522449-14.419592 1.044898-21.524898l-45.975511-12.643265 47.647347-2.821224c1.149388-9.299592 2.716735-18.494694 4.493062-27.480817l-43.990204-18.181224 47.542857 2.925714c1.776327-7.000816 3.761633-13.897143 5.955918-20.68898l-41.900408-22.674285 46.915918 7.836734c3.239184-8.672653 6.791837-17.240816 10.657959-25.6l-38.765714-27.689796 45.662041 13.583674c3.343673-6.373878 6.791837-12.643265 10.44898-18.808163l-35.735511-31.555919 43.990204 18.285715c5.12-7.732245 10.553469-15.25551 16.195919-22.569796l-31.660408-35.735511 41.482449 23.614694c4.702041-5.537959 9.508571-10.866939 14.419591-16.091428l-27.689795-38.765714 38.765714 27.689795c5.22449-4.91102 10.553469-9.717551 16.091428-14.419591l-23.614694-41.482449 35.735511 31.660408c7.314286-5.642449 14.837551-11.075918 22.569796-16.195919l-18.285715-43.990204 31.555919 35.735511c6.164898-3.657143 12.434286-7.105306 18.808163-10.44898l-13.583674-45.662041 27.689796 38.765714c8.359184-3.866122 16.927347-7.418776 25.6-10.657959l-7.836734-46.915918 22.674285 41.900408c6.791837-2.194286 13.688163-4.179592 20.68898-5.955918l-2.925714-47.542857 18.181224 43.990204c8.986122-1.776327 18.181224-3.343673 27.480817-4.493062l2.821224-47.647347 12.643265 45.975511c7.105306-0.522449 14.315102-0.940408 21.524898-1.044898L512 109.714286z m305.005714 335.098775C814.497959 328.097959 678.347755 198.530612 512 198.530612c-50.155102 0-97.697959 11.807347-139.702857 32.809796l150.465306 260.597551zM336.248163 252.447347C253.178776 308.767347 198.530612 403.957551 198.530612 512c0 108.251429 54.857143 203.755102 138.34449 260.075102l149.733878-259.239184zM510.850612 513.044898v-0.417959l-0.313469 0.208979z m313.887347 20.68898h-301.97551L373.028571 793.077551C414.92898 813.766531 462.053878 825.469388 512 825.469388c165.825306 0 301.557551-128.731429 312.737959-291.73551z" fill="#BDC6C8" p-id="3240"></path></svg>