<svg t="1703824785945" class="icon" viewBox="0 0 1024 1024" version="1.1" xmlns="http://www.w3.org/2000/svg" p-id="131156" width="128" height="128"><path d="M512 512.8704m-432.3328 0a432.3328 432.3328 0 1 0 864.6656 0 432.3328 432.3328 0 1 0-864.6656 0Z" fill="#B688FF" p-id="131157"></path><path d="M287.0272 418.7136c-85.0432 0-160.4096 41.3696-207.104 105.0624 4.5568 182.7328 122.368 337.3056 285.952 396.032 103.2192-33.28 177.92-130.048 177.92-244.3776 0-141.7216-114.944-256.7168-256.768-256.7168z" fill="#C3A4FF" p-id="131158"></path><path d="M699.392 741.888H334.848c-57.8048 0-104.6528-46.848-104.6528-104.6528V388.5568c0-57.8048 46.848-104.6528 104.6528-104.6528h364.5952c57.8048 0 104.6528 46.848 104.6528 104.6528v248.6784c-0.0512 57.7536-46.8992 104.6528-104.704 104.6528z" fill="#FFFFFF" p-id="131159"></path><path d="M727.04 420.1472c-20.1728-29.1328-62.6176-30.976-85.248-3.6352l-147.456 178.2784-47.2576-61.184c-19.9168-25.7536-58.0608-27.904-80.7424-4.5568l-132.2496 136.2432c12.288 44.1344 52.6848 76.4928 100.7104 76.4928h364.544c57.8048 0 104.6528-46.848 104.6528-104.6528v-105.8816L727.04 420.1472z" fill="#D7C7FF" p-id="131160"></path><path d="M372.8384 389.888m-43.1616 0a43.1616 43.1616 0 1 0 86.3232 0 43.1616 43.1616 0 1 0-86.3232 0Z" fill="#B688FF" p-id="131161"></path></svg>